<?xml version="1.0" encoding="utf-8"?>
<!-- Generator: Adobe Illustrator 25.3.1, SVG Export Plug-In . SVG Version: 6.00 Build 0)  -->
<svg version="1.1" xmlns="http://www.w3.org/2000/svg" xmlns:xlink="http://www.w3.org/1999/xlink" x="0px" y="0px"
	 viewBox="0 0 500 166.2" style="enable-background:new 0 0 500 166.2;" xml:space="preserve">
<style type="text/css">
	.st0{fill:#404041;}
	.st1{display:none;}
	.st2{display:inline;fill:#326CE5;}
	.st3{fill:#326CE5;}
	.st4{clip-path:url(#SVGID_2_);}
	.st5{fill:none;stroke:#FFFFFF;stroke-width:0.5;stroke-miterlimit:10;}
</style>
<g id="Layer_1">
	<path class="st0" d="M221.7,74l1.9-2.1c0.7-0.7,1.3-1.4,1.9-2.1l1.7-2c0.5-0.6,1-1.2,1.4-1.7h7.4c-1.5,1.7-2.9,3.3-4.3,4.8
		c-1.4,1.5-2.9,3.1-4.6,4.8c0.9,0.8,1.8,1.7,2.6,2.7c0.9,1,1.7,2.1,2.6,3.2c0.8,1.1,1.6,2.2,2.3,3.3c0.7,1.1,1.3,2.1,1.7,3h-7.1
		c-0.4-0.7-0.9-1.5-1.5-2.4c-0.6-0.9-1.2-1.7-1.8-2.6c-0.6-0.9-1.3-1.7-2-2.5c-0.6-0.7-1.3-1.4-2.1-2V88h-6.2V56.7l6.2-1L221.7,74
		L221.7,74z M257.9,87.3c-1.3,0.4-2.7,0.7-4.1,0.9c-1.7,0.3-3.5,0.4-5.2,0.4c-1.6,0-3.2-0.2-4.6-0.8c-1.1-0.4-2.2-1.2-2.9-2.1
		c-0.7-0.9-1.3-2-1.5-3.2c-0.3-1.4-0.5-2.7-0.5-4.1V66.1h6.2v11.4c0,2,0.3,3.4,0.8,4.3s1.5,1.3,3,1.3c0.4,0,0.9,0,1.4-0.1
		c0.5,0,1-0.1,1.3-0.1V66.1h6.2V87.3z M284.1,77.1c0,1.6-0.2,3.2-0.8,4.7c-0.5,1.4-1.2,2.6-2.2,3.6c-1,1-2.2,1.8-3.6,2.3
		c-1.5,0.6-3.2,0.8-4.8,0.8c-0.7,0-1.5,0-2.4-0.1c-0.8-0.1-1.6-0.2-2.4-0.3c-0.8-0.1-1.5-0.2-2.3-0.4s-1.4-0.3-1.9-0.5V56.7l6.2-1
		v10.9c0.7-0.3,1.4-0.5,2.2-0.7c0.8-0.2,1.6-0.3,2.4-0.3c1.4,0,2.8,0.2,4.1,0.8c1.2,0.5,2.2,1.3,3,2.3c0.8,1.1,1.5,2.3,1.8,3.6
		C283.9,73.9,284.1,75.5,284.1,77.1z M277.7,76.9c0-4-1.5-6-4.4-6c-0.6,0-1.3,0.1-1.9,0.3c-0.5,0.1-1.1,0.4-1.5,0.6V83
		c0.3,0.1,0.7,0.1,1.2,0.1c0.5,0,1,0.1,1.5,0.1c1.5,0.1,2.9-0.6,3.9-1.7C277.4,80.1,277.8,78.5,277.7,76.9L277.7,76.9z M287.8,77.2
		c0-1.7,0.3-3.5,0.9-5.1c0.5-1.4,1.3-2.6,2.4-3.6c1-0.9,2.1-1.7,3.4-2.2c1.2-0.5,2.6-0.8,3.9-0.8c3.1,0,5.6,1,7.4,2.9
		c1.8,1.9,2.7,4.7,2.7,8.4c0,0.4,0,0.8,0,1.2c0,0.4-0.1,0.8-0.1,1.1h-14.1c0.1,1.2,0.8,2.3,1.8,3c1.3,0.8,2.7,1.2,4.2,1.1
		c1.1,0,2.2-0.1,3.4-0.3c0.9-0.2,1.8-0.4,2.7-0.8l0.8,5c-0.4,0.2-0.9,0.4-1.3,0.5c-0.6,0.2-1.2,0.3-1.8,0.4
		c-0.7,0.1-1.4,0.2-2.2,0.3c-0.8,0.1-1.6,0.1-2.3,0.1c-1.8,0-3.5-0.3-5.1-0.9c-1.4-0.5-2.6-1.3-3.6-2.4c-1-1-1.7-2.3-2.1-3.6
		C288,80.3,287.8,78.8,287.8,77.2L287.8,77.2z M302.4,74.8c0-0.5-0.1-1-0.3-1.5c-0.1-0.5-0.4-0.9-0.7-1.3c-0.3-0.4-0.7-0.7-1.2-1
		c-0.6-0.3-1.2-0.4-1.8-0.4c-0.6,0-1.2,0.1-1.8,0.4c-0.5,0.2-0.9,0.5-1.2,0.9c-0.3,0.4-0.6,0.9-0.8,1.4c-0.2,0.5-0.3,1-0.4,1.6
		L302.4,74.8L302.4,74.8z M326.3,71.6c-0.6-0.1-1.2-0.3-1.9-0.4c-0.8-0.2-1.6-0.2-2.4-0.2c-0.5,0-0.9,0-1.4,0.1
		c-0.4,0-0.8,0.1-1.2,0.2V88h-6.2V67.3c1.3-0.4,2.6-0.8,3.9-1.1c1.7-0.4,3.4-0.5,5.1-0.5c0.3,0,0.7,0,1.2,0.1c0.5,0,0.9,0.1,1.4,0.2
		s0.9,0.2,1.4,0.3c0.4,0.1,0.8,0.2,1.2,0.4L326.3,71.6z M330.7,66.9c1.3-0.4,2.7-0.7,4.1-0.9c1.7-0.3,3.5-0.4,5.2-0.4
		c1.6,0,3.2,0.2,4.7,0.7c1.1,0.4,2.2,1.1,2.9,2.1c0.7,0.9,1.3,2,1.5,3.2c0.3,1.3,0.5,2.7,0.5,4.1V88h-6.2V76.4c0-2-0.3-3.4-0.8-4.2
		c-0.5-0.8-1.5-1.2-3-1.2c-0.4,0-0.9,0-1.4,0.1s-1,0.1-1.3,0.1V88h-6.2L330.7,66.9L330.7,66.9z M354.2,77.2c0-1.7,0.3-3.5,0.9-5.1
		c0.5-1.4,1.3-2.6,2.4-3.6c0.9-0.9,2.1-1.7,3.3-2.2c1.2-0.5,2.6-0.8,3.9-0.8c3.1,0,5.6,1,7.4,2.9c1.8,1.9,2.7,4.7,2.7,8.4
		c0,0.4,0,0.8,0,1.2c0,0.4-0.1,0.8-0.1,1.1h-14.1c0.1,1.2,0.8,2.3,1.8,3c1.3,0.8,2.7,1.2,4.2,1.1c1.1,0,2.2-0.1,3.4-0.3
		c0.9-0.2,1.8-0.4,2.7-0.8l0.8,5c-0.4,0.2-0.9,0.4-1.3,0.5c-0.6,0.2-1.2,0.3-1.8,0.4c-0.7,0.1-1.4,0.2-2.2,0.3
		c-0.8,0.1-1.6,0.1-2.3,0.1c-1.8,0-3.5-0.3-5.1-0.9c-1.4-0.5-2.6-1.3-3.6-2.4c-1-1-1.7-2.3-2.1-3.6
		C354.4,80.3,354.2,78.8,354.2,77.2L354.2,77.2z M368.8,74.8c0-0.5-0.1-1-0.3-1.5c-0.1-0.5-0.4-0.9-0.7-1.3c-0.3-0.4-0.7-0.7-1.2-1
		c-0.6-0.3-1.2-0.4-1.8-0.4c-0.6,0-1.2,0.1-1.8,0.4c-0.5,0.2-0.9,0.5-1.2,0.9c-0.3,0.4-0.6,0.9-0.8,1.4c-0.2,0.5-0.3,1-0.4,1.6
		L368.8,74.8L368.8,74.8z M379.3,60.6l6.2-1v6.4h7.4v5.1h-7.4v7.7c-0.1,1.1,0.2,2.2,0.7,3.1c0.5,0.8,1.4,1.2,2.8,1.2
		c0.7,0,1.4-0.1,2.1-0.2c0.7-0.1,1.3-0.3,1.9-0.5l0.9,4.8c-0.8,0.3-1.6,0.6-2.5,0.8c-1.1,0.2-2.2,0.4-3.4,0.3
		c-1.4,0-2.9-0.2-4.2-0.7c-1-0.4-2-1.1-2.7-1.9c-0.7-0.9-1.2-1.9-1.4-3c-0.3-1.3-0.4-2.6-0.4-3.9L379.3,60.6L379.3,60.6z
		 M396.3,77.2c0-1.7,0.3-3.5,0.9-5.1c0.5-1.4,1.3-2.6,2.4-3.6c1-0.9,2.1-1.7,3.4-2.2c1.2-0.5,2.6-0.8,3.9-0.8c3.1,0,5.6,1,7.4,2.9
		c1.8,1.9,2.7,4.7,2.7,8.4c0,0.4,0,0.8,0,1.2c0,0.4-0.1,0.8-0.1,1.1h-14.1c0.1,1.2,0.8,2.3,1.8,3c1.3,0.8,2.7,1.2,4.2,1.1
		c1.1,0,2.2-0.1,3.4-0.3c0.9-0.2,1.8-0.4,2.7-0.8l0.8,5c-0.4,0.2-0.9,0.4-1.3,0.5c-0.6,0.2-1.2,0.3-1.8,0.4
		c-0.7,0.1-1.4,0.2-2.2,0.3c-0.8,0.1-1.6,0.1-2.3,0.1c-1.8,0-3.5-0.3-5.1-0.9c-1.4-0.5-2.6-1.3-3.6-2.4c-1-1-1.7-2.3-2.1-3.6
		C396.5,80.3,396.3,78.8,396.3,77.2L396.3,77.2z M410.9,74.8c0-0.5-0.1-1-0.3-1.5c-0.1-0.5-0.4-0.9-0.7-1.3c-0.3-0.4-0.7-0.7-1.2-1
		c-0.6-0.3-1.2-0.4-1.8-0.4c-0.6,0-1.2,0.1-1.8,0.4c-0.5,0.2-0.9,0.5-1.3,0.9c-0.3,0.4-0.6,0.9-0.8,1.4c-0.2,0.5-0.3,1-0.4,1.6
		H410.9z M427.9,83.5c0.8,0,1.6-0.1,2.4-0.3c0.5-0.2,0.8-0.8,0.7-1.3c-0.1-0.6-0.4-1.1-0.9-1.3c-0.9-0.5-1.8-0.9-2.8-1.3
		c-0.9-0.3-1.8-0.7-2.6-1.1c-0.7-0.4-1.4-0.8-2-1.4c-0.6-0.5-1-1.2-1.3-1.9c-0.3-0.9-0.5-1.8-0.5-2.7c-0.1-1.9,0.8-3.7,2.3-4.9
		c1.5-1.2,3.6-1.8,6.3-1.8c1.3,0,2.6,0.1,3.9,0.4c1,0.2,2,0.4,2.9,0.8l-1.1,4.8c-0.8-0.3-1.6-0.5-2.4-0.6c-0.9-0.2-1.9-0.3-2.9-0.3
		c-1.9,0-2.9,0.5-2.9,1.6c0,0.2,0,0.4,0.1,0.6c0.1,0.2,0.3,0.4,0.5,0.6c0.3,0.2,0.7,0.4,1,0.6c0.4,0.2,1,0.4,1.6,0.7
		c1.2,0.4,2.3,0.9,3.4,1.5c0.8,0.4,1.5,0.9,2.1,1.6c0.5,0.5,0.9,1.2,1.1,1.9c0.2,0.8,0.3,1.6,0.3,2.4c0.1,1.9-0.8,3.8-2.4,4.9
		c-1.6,1.1-3.9,1.7-6.9,1.7c-1.6,0-3.3-0.1-4.8-0.5c-0.9-0.2-1.8-0.5-2.7-0.8l1-5c1.1,0.4,2.1,0.7,3.2,1
		C425.7,83.4,426.8,83.5,427.9,83.5z"/>
	<g>
		<path class="st0" d="M224.7,122.5c-2,0-3.6-0.4-5-1.3c-1.4-0.8-2.4-2-3.1-3.6c-0.7-1.6-1.1-3.4-1.1-5.6c0-2.2,0.4-4,1.1-5.6
			c0.7-1.6,1.8-2.8,3.1-3.6c1.4-0.8,3-1.3,5-1.3c1.5,0,2.8,0.2,3.9,0.7s2.1,1.2,3,2.1l-0.6,1c-0.9-0.9-1.9-1.6-2.9-2
			c-1-0.4-2.1-0.6-3.4-0.6c-2.6,0-4.5,0.8-5.9,2.4s-2,3.9-2,6.8c0,2,0.3,3.6,0.9,5c0.6,1.4,1.5,2.4,2.6,3.2c1.2,0.7,2.6,1.1,4.3,1.1
			c1.3,0,2.5-0.2,3.4-0.6c1-0.4,1.9-1.1,2.9-2l0.6,1c-0.9,0.9-1.9,1.6-3,2.1S226.2,122.5,224.7,122.5z"/>
		<path class="st0" d="M240.4,122.5c-1.3,0-2.5-0.3-3.4-0.9s-1.7-1.5-2.2-2.6c-0.5-1.1-0.8-2.5-0.8-4s0.3-2.9,0.8-4
			c0.5-1.1,1.3-2,2.2-2.6s2.1-0.9,3.4-0.9s2.5,0.3,3.4,0.9s1.7,1.5,2.2,2.6c0.5,1.1,0.8,2.5,0.8,4s-0.3,2.9-0.8,4
			c-0.5,1.1-1.3,2-2.2,2.6S241.7,122.5,240.4,122.5z M240.4,121.3c1.6,0,2.9-0.5,3.8-1.6c0.9-1.1,1.4-2.7,1.4-4.7s-0.5-3.6-1.4-4.7
			c-0.9-1.1-2.2-1.6-3.8-1.6s-2.8,0.5-3.8,1.6c-0.9,1.1-1.4,2.7-1.4,4.7s0.5,3.6,1.4,4.7C237.5,120.8,238.8,121.3,240.4,121.3z"/>
		<path class="st0" d="M251,122.2v-11.4c0-0.5,0-1-0.1-1.5c0-0.5-0.1-1.1-0.2-1.6h1.2l0.3,3.5h-0.3c0.4-1.2,1-2.1,1.8-2.8
			s1.9-1,3.1-1c1.3,0,2.3,0.3,3.1,0.9c0.8,0.6,1.3,1.6,1.5,2.8h-0.4c0.3-1.1,1-2,1.9-2.7s2-1,3.3-1c1.5,0,2.7,0.4,3.5,1.3
			c0.8,0.9,1.2,2.3,1.2,4.2v9.2h-1.2v-9.1c0-1.6-0.3-2.7-0.8-3.4c-0.6-0.7-1.5-1.1-2.7-1.1c-1.4,0-2.5,0.5-3.3,1.4
			c-0.8,0.9-1.2,2.2-1.2,3.8v8.4h-1.2v-9.1c0-1.6-0.3-2.7-0.8-3.4c-0.6-0.7-1.5-1.1-2.7-1.1c-1.4,0-2.5,0.5-3.3,1.4
			c-0.8,0.9-1.2,2.2-1.2,3.8v8.4H251z"/>
		<path class="st0" d="M275.9,122.2v-11.4c0-0.5,0-1-0.1-1.5c0-0.5-0.1-1.1-0.2-1.6h1.2l0.3,3.5h-0.3c0.4-1.2,1-2.1,1.8-2.8
			s1.9-1,3.1-1c1.3,0,2.3,0.3,3.1,0.9c0.8,0.6,1.3,1.6,1.5,2.8h-0.4c0.3-1.1,1-2,1.9-2.7s2-1,3.3-1c1.5,0,2.7,0.4,3.5,1.3
			c0.8,0.9,1.2,2.3,1.2,4.2v9.2h-1.2v-9.1c0-1.6-0.3-2.7-0.8-3.4c-0.6-0.7-1.5-1.1-2.7-1.1c-1.4,0-2.5,0.5-3.3,1.4
			c-0.8,0.9-1.2,2.2-1.2,3.8v8.4h-1.2v-9.1c0-1.6-0.3-2.7-0.8-3.4c-0.6-0.7-1.5-1.1-2.7-1.1c-1.4,0-2.5,0.5-3.3,1.4
			c-0.8,0.9-1.2,2.2-1.2,3.8v8.4H275.9z"/>
		<path class="st0" d="M305.9,122.5c-1.7,0-3-0.5-3.8-1.4c-0.9-0.9-1.3-2.3-1.3-4.2v-9.2h1.2v9.1c0,1.6,0.3,2.7,1,3.4
			c0.6,0.7,1.6,1.1,3,1.1c1.5,0,2.7-0.5,3.6-1.4c0.9-1,1.3-2.2,1.3-3.8v-8.4h1.2v14.5h-1.2v-3.5h0.3c-0.4,1.2-1,2.1-2,2.8
			C308.2,122.1,307.1,122.5,305.9,122.5z"/>
		<path class="st0" d="M317.1,122.2v-11.4c0-0.5,0-1-0.1-1.5c0-0.5-0.1-1.1-0.2-1.6h1.2l0.3,3.5H318c0.4-1.2,1.1-2.1,2-2.8
			c1-0.6,2.1-0.9,3.4-0.9c1.7,0,3,0.4,3.9,1.3c0.9,0.9,1.3,2.3,1.3,4.2v9.2h-1.2v-9.1c0-1.6-0.3-2.7-1-3.4c-0.6-0.7-1.6-1.1-3-1.1
			c-1.6,0-2.8,0.5-3.7,1.4c-0.9,0.9-1.4,2.2-1.4,3.8v8.4H317.1z"/>
		<path class="st0" d="M333.3,103.9v-1.8h1.9v1.8H333.3z M333.6,122.2v-14.5h1.2v14.5H333.6z"/>
		<path class="st0" d="M344.2,122.5c-1.2,0-2.1-0.4-2.7-1.1s-0.9-1.9-0.9-3.4v-9.2h-2.9v-1h2.9v-4.1l1.2-0.5v4.6h4.4v1h-4.4v8.9
			c0,1.3,0.2,2.2,0.6,2.8s1,0.9,1.9,0.9c0.4,0,0.7,0,1-0.1c0.3-0.1,0.6-0.2,0.8-0.3v1.2c-0.2,0.1-0.5,0.2-0.9,0.2
			C344.9,122.4,344.5,122.5,344.2,122.5z"/>
		<path class="st0" d="M348.7,128.8l-0.3-1.1c0.9-0.2,1.7-0.5,2.2-0.8s1.1-0.7,1.5-1.2c0.4-0.5,0.8-1.1,1.1-1.9l0.8-1.7l0,0.6
			l-6.3-14.9h1.4l5.8,14h-0.7l5.7-14h1.4l-6.8,16.1c-0.3,0.8-0.7,1.5-1.1,2.1s-0.8,1-1.3,1.4c-0.5,0.4-1,0.7-1.6,0.9
			C350,128.5,349.4,128.7,348.7,128.8z"/>
		<path class="st0" d="M372.1,122.2v-20.4h6.2c2.2,0,4.1,0.4,5.6,1.2c1.5,0.8,2.7,1.9,3.5,3.4s1.2,3.4,1.2,5.6
			c0,2.2-0.4,4.1-1.2,5.6s-2,2.7-3.5,3.5c-1.5,0.8-3.4,1.2-5.6,1.2H372.1z M373.3,121.1h4.9c3.1,0,5.3-0.8,6.8-2.3
			c1.5-1.5,2.2-3.8,2.2-6.8s-0.8-5.3-2.2-6.8c-1.5-1.5-3.8-2.3-6.8-2.3h-4.9V121.1z"/>
		<path class="st0" d="M398.5,122.5c-1.3,0-2.5-0.3-3.4-0.9s-1.7-1.5-2.2-2.6c-0.5-1.1-0.8-2.5-0.8-4c0-1.6,0.3-2.9,0.8-4
			c0.5-1.1,1.3-2,2.2-2.6c1-0.6,2.1-0.9,3.4-0.9c1.4,0,2.5,0.4,3.5,1.1c1,0.7,1.6,1.7,1.9,3h-0.3l0.3-3.8h1.2
			c-0.1,0.5-0.1,1.1-0.2,1.6c0,0.5-0.1,1-0.1,1.5v11.4h-1.2v-3.8h0.3c-0.3,1.3-1,2.2-1.9,3C401.1,122.1,399.9,122.5,398.5,122.5z
			 M398.5,121.3c1.6,0,2.8-0.5,3.8-1.6c0.9-1.1,1.4-2.7,1.4-4.7s-0.5-3.6-1.4-4.7c-0.9-1.1-2.2-1.6-3.8-1.6s-2.8,0.5-3.8,1.6
			c-0.9,1.1-1.4,2.7-1.4,4.7s0.5,3.6,1.4,4.7C395.7,120.8,397,121.3,398.5,121.3z"/>
		<path class="st0" d="M409,128.8l-0.3-1.1c0.9-0.2,1.7-0.5,2.2-0.8s1.1-0.7,1.5-1.2c0.4-0.5,0.8-1.1,1.1-1.9l0.8-1.7l0,0.6
			l-6.3-14.9h1.4l5.8,14h-0.7l5.7-14h1.4l-6.8,16.1c-0.3,0.8-0.7,1.5-1.1,2.1s-0.8,1-1.3,1.4c-0.5,0.4-1,0.7-1.6,0.9
			C410.3,128.5,409.7,128.7,409,128.8z"/>
		<path class="st0" d="M429.2,122.5c-1.1,0-2.1-0.2-3.1-0.5c-1-0.3-1.7-0.8-2.3-1.4l0.6-1c0.7,0.6,1.5,1,2.3,1.3
			c0.8,0.3,1.7,0.4,2.6,0.4c1.3,0,2.3-0.3,3-0.8c0.7-0.5,1-1.2,1-2.1c0-0.7-0.2-1.2-0.7-1.6c-0.4-0.4-1.2-0.7-2.2-0.9l-2.5-0.6
			c-1.2-0.3-2.2-0.8-2.8-1.4c-0.6-0.6-0.9-1.4-0.9-2.4c0-0.8,0.2-1.5,0.6-2.1c0.4-0.6,1-1.1,1.8-1.5c0.8-0.4,1.7-0.5,2.8-0.5
			c1,0,2,0.2,2.8,0.5c0.9,0.3,1.6,0.8,2.1,1.5l-0.6,1c-0.6-0.6-1.2-1-1.9-1.3c-0.7-0.3-1.5-0.5-2.3-0.5c-1.3,0-2.2,0.3-2.9,0.8
			s-1,1.3-1,2.1c0,0.7,0.2,1.2,0.6,1.7c0.4,0.4,1.1,0.7,2,1l2.5,0.6c1.3,0.3,2.3,0.8,2.9,1.3c0.6,0.6,1,1.4,1,2.3
			c0,0.8-0.2,1.5-0.7,2.1c-0.4,0.6-1.1,1.1-1.9,1.4C431.2,122.3,430.2,122.5,429.2,122.5z"/>
	</g>
	<g>
		<g class="st1">
			<path class="st2" d="M301.1,139.9h1.9l6,15.6h-3.2l-3.7-10.7l-3.7,10.7h-3.2L301.1,139.9z M298,150.2h8.2v2.8H298V150.2z"/>
			<path class="st2" d="M313.6,151.2c0,0.5,0.2,1,0.5,1.3c0.3,0.3,0.7,0.4,1.3,0.4s1-0.2,1.3-0.5c0.3-0.3,0.4-0.7,0.4-1.3l0.2,2.4
				c-0.2,0.6-0.6,1.1-1,1.5c-0.5,0.4-1.1,0.6-1.8,0.6c-1.2,0-2.1-0.4-2.8-1.2s-1-1.9-1-3.3v-6.9h2.9V151.2z M317.1,144.4h2.9v11.2
				h-2.9V144.4z"/>
			<path class="st2" d="M325.2,155.5c-0.6-0.1-1.2-0.3-1.8-0.5c-0.6-0.2-1-0.5-1.5-0.8l1.8-2.3c0.5,0.3,1.1,0.6,1.7,0.8
				c0.6,0.2,1.1,0.3,1.7,0.3c0.7,0,1.2-0.1,1.6-0.2s0.6-0.4,0.6-0.6c0-0.2-0.1-0.4-0.2-0.6s-0.4-0.2-0.6-0.3s-0.6-0.1-1.1-0.1
				c-0.1,0-0.3,0-0.4,0c-0.1,0-0.3,0-0.4,0c0,0-0.1,0-0.1,0c0,0-0.1,0-0.1,0c-0.8-0.1-1.5-0.2-2-0.4c-0.5-0.2-0.9-0.5-1.3-0.9
				c-0.3-0.4-0.5-1.1-0.5-2c0-0.7,0.2-1.4,0.5-1.9c0.4-0.5,0.9-0.9,1.6-1.2s1.5-0.4,2.5-0.4c0.6,0,1.1,0.1,1.7,0.2
				c0.6,0.1,1.1,0.3,1.6,0.5s1,0.5,1.4,0.8l-1.8,2.1c-0.5-0.3-1-0.5-1.5-0.6s-1-0.2-1.5-0.2c-0.6,0-1.1,0.1-1.4,0.2
				c-0.3,0.1-0.5,0.3-0.5,0.6c0,0.2,0.1,0.3,0.3,0.4c0.2,0.1,0.4,0.2,0.7,0.2c0.3,0,0.6,0.1,1.1,0.2c0.1,0,0.1,0,0.2,0
				c0.1,0,0.1,0,0.2,0c0,0,0.1,0,0.1,0s0.1,0,0.1,0c0.9,0.1,1.6,0.2,2.1,0.4c0.5,0.2,1,0.5,1.4,0.9c0.4,0.5,0.6,1.2,0.6,2.1
				c0,0.8-0.2,1.4-0.6,2c-0.4,0.6-0.9,1-1.6,1.3s-1.6,0.4-2.6,0.4C326.5,155.7,325.9,155.6,325.2,155.5z"/>
			<path class="st2" d="M333.5,144.4h5.5v2.5h-5.5V144.4z M335.3,154.8c-0.5-0.5-0.7-1.2-0.7-2.2v-11.5h2.9v10.8
				c0,0.3,0.1,0.5,0.2,0.6s0.3,0.2,0.5,0.2h0.7v2.8h-1.5C336.5,155.6,335.8,155.3,335.3,154.8z"/>
			<path class="st2" d="M341.5,144.4h3.2v11.2h-3.2V144.4z M347.3,147.2c-0.2-0.1-0.4-0.1-0.7-0.1c-0.6,0-1.1,0.2-1.4,0.6
				c-0.3,0.4-0.5,0.9-0.5,1.6l-0.2-2.9c0.3-0.7,0.7-1.2,1.2-1.6c0.5-0.4,1-0.6,1.6-0.6c0.5,0,0.9,0.1,1.3,0.2c0.4,0.1,0.7,0.4,1,0.6
				l-1.7,2.4C347.6,147.3,347.5,147.2,347.3,147.2z"/>
			<path class="st2" d="M351.3,154.8c-0.6-0.6-0.9-1.4-0.9-2.6c0-1.1,0.3-1.9,1-2.5c0.7-0.6,1.7-0.8,3-0.8h2.8l0.2,2.2h-2.9
				c-0.4,0-0.8,0.1-1,0.3s-0.3,0.4-0.3,0.8c0,0.4,0.1,0.6,0.4,0.8s0.7,0.3,1.3,0.3c0.8,0,1.4-0.1,1.8-0.3c0.4-0.2,0.6-0.5,0.6-0.8
				l0.2,1.6c0,0.4-0.2,0.7-0.6,1c-0.3,0.3-0.7,0.5-1.2,0.6c-0.5,0.1-1,0.2-1.6,0.2C352.7,155.7,351.8,155.4,351.3,154.8z M357,148.5
				c0-0.5-0.2-0.9-0.5-1.2s-0.8-0.4-1.5-0.4c-0.4,0-0.8,0.1-1.2,0.2c-0.4,0.1-0.8,0.3-1.1,0.6l-1.8-1.8c0.4-0.5,1-0.9,1.8-1.2
				s1.5-0.4,2.4-0.4c1,0,1.8,0.2,2.5,0.5s1.2,0.8,1.6,1.4c0.4,0.6,0.5,1.4,0.5,2.2v7.2H357V148.5z"/>
			<path class="st2" d="M365.6,151.8c0,0.3,0.1,0.5,0.2,0.6c0.2,0.1,0.4,0.2,0.7,0.2h0.5v2.8h-1.5c-0.9,0-1.6-0.3-2.1-0.8
				s-0.7-1.2-0.7-2.2v-12.7h2.9V151.8z"/>
			<path class="st2" d="M368.8,139.9h2.9v2.9h-2.9V139.9z M368.8,144.4h2.9v11.2h-2.9V144.4z"/>
			<path class="st2" d="M374.9,154.8c-0.6-0.6-0.9-1.4-0.9-2.6c0-1.1,0.3-1.9,1-2.5c0.7-0.6,1.7-0.8,3-0.8h2.8l0.2,2.2H378
				c-0.4,0-0.8,0.1-1,0.3s-0.3,0.4-0.3,0.8c0,0.4,0.1,0.6,0.4,0.8s0.7,0.3,1.3,0.3c0.8,0,1.4-0.1,1.8-0.3c0.4-0.2,0.6-0.5,0.6-0.8
				l0.2,1.6c0,0.4-0.2,0.7-0.6,1c-0.3,0.3-0.7,0.5-1.2,0.6c-0.5,0.1-1,0.2-1.6,0.2C376.3,155.7,375.4,155.4,374.9,154.8z
				 M380.6,148.5c0-0.5-0.2-0.9-0.5-1.2s-0.8-0.4-1.5-0.4c-0.4,0-0.8,0.1-1.2,0.2c-0.4,0.1-0.8,0.3-1.1,0.6l-1.8-1.8
				c0.4-0.5,1-0.9,1.8-1.2s1.5-0.4,2.4-0.4c1,0,1.8,0.2,2.5,0.5s1.2,0.8,1.6,1.4c0.4,0.6,0.5,1.4,0.5,2.2v7.2h-2.7V148.5z"/>
			<path class="st2" d="M391.8,152.9l5.4-7c0.2-0.3,0.4-0.6,0.6-1c0.1-0.3,0.2-0.6,0.2-0.9v0c0-0.4-0.1-0.7-0.4-1
				c-0.3-0.2-0.7-0.3-1.2-0.3c-0.5,0-0.9,0.2-1.2,0.5s-0.5,0.8-0.5,1.4v0h-3v0c0.1-1,0.3-1.8,0.7-2.5c0.4-0.7,1-1.2,1.6-1.6
				s1.5-0.6,2.4-0.6c1,0,1.8,0.2,2.5,0.5c0.7,0.3,1.2,0.8,1.6,1.4c0.4,0.6,0.5,1.3,0.5,2.2v0c0,0.7-0.1,1.4-0.4,2.1
				c-0.2,0.7-0.6,1.3-1,1.9l-3.8,4.9h5.3v2.8h-9.2V152.9z"/>
			<path class="st2" d="M404.6,154.5c-0.8-0.8-1.2-1.9-1.2-3.3v-7.1c0-1.4,0.4-2.5,1.2-3.3c0.8-0.8,2-1.2,3.5-1.2
				c1.5,0,2.7,0.4,3.5,1.2s1.2,1.9,1.2,3.3v7.1c0,1.4-0.4,2.5-1.2,3.3c-0.8,0.8-2,1.2-3.5,1.2C406.5,155.7,405.4,155.3,404.6,154.5z
				 M409.4,152.3c0.3-0.4,0.4-1,0.4-1.7v-5.6c0-0.8-0.1-1.3-0.4-1.7s-0.7-0.6-1.3-0.6s-1,0.2-1.3,0.6s-0.4,1-0.4,1.7v5.6
				c0,0.8,0.1,1.3,0.4,1.7s0.7,0.6,1.3,0.6S409.1,152.7,409.4,152.3z"/>
			<path class="st2" d="M415.3,152.9l5.4-7c0.2-0.3,0.4-0.6,0.6-1c0.1-0.3,0.2-0.6,0.2-0.9v0c0-0.4-0.1-0.7-0.4-1
				c-0.3-0.2-0.7-0.3-1.2-0.3c-0.5,0-0.9,0.2-1.2,0.5s-0.5,0.8-0.5,1.4v0h-3v0c0.1-1,0.3-1.8,0.7-2.5c0.4-0.7,1-1.2,1.6-1.6
				s1.5-0.6,2.4-0.6c1,0,1.8,0.2,2.5,0.5c0.7,0.3,1.2,0.8,1.6,1.4c0.4,0.6,0.5,1.3,0.5,2.2v0c0,0.7-0.1,1.4-0.4,2.1
				c-0.2,0.7-0.6,1.3-1,1.9l-3.8,4.9h5.3v2.8h-9.2V152.9z"/>
			<path class="st2" d="M426.6,152.9l5.4-7c0.2-0.3,0.4-0.6,0.6-1c0.1-0.3,0.2-0.6,0.2-0.9v0c0-0.4-0.1-0.7-0.4-1
				c-0.3-0.2-0.7-0.3-1.2-0.3c-0.5,0-0.9,0.2-1.2,0.5s-0.5,0.8-0.5,1.4v0h-3v0c0.1-1,0.3-1.8,0.7-2.5c0.4-0.7,1-1.2,1.6-1.6
				s1.5-0.6,2.4-0.6c1,0,1.8,0.2,2.5,0.5c0.7,0.3,1.2,0.8,1.6,1.4c0.4,0.6,0.5,1.3,0.5,2.2v0c0,0.7-0.1,1.4-0.4,2.1
				c-0.2,0.7-0.6,1.3-1,1.9l-3.8,4.9h5.3v2.8h-9.2V152.9z"/>
		</g>
	</g>
</g>
<g id="Layer_2">
	<g>
		<g>
			<g>
				<path class="st3" d="M175.4,108.5L175.4,108.5c-0.4,0.1-0.9,0.2-1.2,0.4c-1.9,0.8-2.7,2.9-1.9,4.8l8.3,20.1
					c8-5.1,14-12.7,17.2-21.6l-21.4-3.6C176,108.5,175.7,108.5,175.4,108.5z"/>
				<path class="st3" d="M163.9,77c0,0.8,0.3,1.6,0.8,2.2c1.3,1.6,3.5,1.8,5.1,0.6L182,71c-2.8-0.9-5.7-1.4-8.7-1.6
					c-1.3-4.7-3.2-9.1-5.7-13.1c-1.6-0.4-3.3-0.7-5-0.9L163.9,77z"/>
				<path class="st3" d="M160.7,119.2c-0.7-1.2-1.9-1.9-3.3-1.9v0.1c-1.3,0-2.5,0.7-3.1,1.8l-10.4,18.9c7.5,2.5,15.5,3,23.2,1.2
					c1.4-0.3,2.8-0.7,4.2-1.2L160.7,119.2L160.7,119.2z"/>
				<path class="st3" d="M115.1,102.2l20.8-6v-0.1c0.7-0.2,1.3-0.6,1.8-1.1c1.3-1.5,1.2-3.8-0.3-5.1v-0.1l-16.2-14.4v0
					C116.2,83.4,114.1,92.8,115.1,102.2z"/>
				<path class="st3" d="M192.5,76.5l-14.8,13.3c-0.5,0.5-0.9,1.1-1.1,1.8c-0.5,1.9,0.6,3.9,2.5,4.5v0.1l20.8,6
					c0.8-7.8-0.6-15.6-4-22.7C194.9,78.4,193.7,77.4,192.5,76.5z"/>
				<path class="st3" d="M134.4,133.6l8.2-19.9v-0.1c0.2-0.4,0.3-0.9,0.3-1.4c0-2-1.6-3.7-3.6-3.7l0,0c-0.2,0-0.5,0-0.7,0l-21.2,3.6
					C120.6,121,126.6,128.5,134.4,133.6z"/>
				<path class="st3" d="M106.6,114.2l-1.8,0.3c-0.7-0.5-1.5-0.8-2.4-0.8c-2.5,0.5-4.9,1.2-7.2,2.1c-1.2,0.5-2.4,1-3.7,1.3l-1.1,0.1
					h-0.1c-1.5,0.5-3.1,0.1-4.2-1c-0.6-0.6-1-1.5-1.2-2.4c-0.3-2.3,1.3-4.3,3.5-4.6h0.1l1.1-0.3c1.3-0.2,2.6-0.3,4-0.3
					c2.5-0.2,5-0.6,7.4-1.2c0.7-0.5,1.3-1.1,1.8-1.8l1.7-0.5c-1.9-13,1.1-26.2,8.4-37.1l-1.3-1.2c0-0.9-0.3-1.7-0.8-2.4
					c-1.9-1.6-4-3-6.2-4.3c-1.2-0.6-2.3-1.3-3.4-2l-0.9-0.7c-2-1.4-2.4-4.1-1-6.1c0.8-1,2-1.5,3.3-1.5c1,0,2,0.4,2.9,1.1l0.9,0.7
					c1,0.9,1.9,1.9,2.7,2.9c1.7,1.8,3.5,3.5,5.5,5c0.8,0.4,1.6,0.5,2.4,0.2l1.5,1.1c7.2-7.7,16.6-13,26.9-15.4
					c2.4-0.6,4.9-0.9,7.4-1.1l0.1-1.8c0.3-0.2,0.5-0.5,0.7-0.8c-7.8-5.3-17.2-8.5-27.4-8.5c-11.9,0-22.8,4.3-31.2,11.3
					c-2.6-0.9-5.4-1.4-8.3-1.4c-14.3,0-26.1,12-27.6,27.4c-14,4.1-24.1,17.1-24.1,32.4c0,18.6,14.6,37.3,33.2,37.3
					c6.4,0,32.5,0,56.9,0C116.5,133.8,110,124.7,106.6,114.2z"/>
				<polygon class="st3" points="151.4,102.5 157.4,105.4 163.3,102.5 164.8,96.1 160.8,90.9 154.2,90.9 150,96.1 				"/>
				<path class="st3" d="M127.6,67.2l17.7,12.6c0.6,0.4,1.3,0.7,2,0.7c2,0.1,3.7-1.5,3.8-3.5h0.1l1.2-21.6c-1.5,0.2-2.9,0.4-4.4,0.7
					C140.3,57.8,133.2,61.7,127.6,67.2z"/>
			</g>
		</g>
		<g>
			<defs>
				<path id="SVGID_1_" d="M59.3,70.7c1.5-15.4,13.3-27.4,27.6-27.4c2.9,0,5.7,0.5,8.3,1.4c8.5-7.1,19.3-11.3,31.2-11.3
					c22.5,0,41.4,15.2,47,35.9c18.6,1.1,33.3,16.6,33.3,35.5c0,19.6-15.9,35.5-35.5,35.5c-11,0-90.9,0-102.9,0
					c-18.6,0-33.2-18.7-33.2-37.3C35.1,87.8,45.3,74.9,59.3,70.7z"/>
			</defs>
			<clipPath id="SVGID_2_">
				<use xlink:href="#SVGID_1_"  style="overflow:visible;"/>
			</clipPath>
			<g class="st4">
				<g>
					<polyline class="st5" points="35.1,95.4 54,95.4 59.5,90.2 71.3,90.2 					"/>
					<circle class="st5" cx="73.9" cy="90.2" r="2.6"/>
				</g>
				<g>
					<line class="st5" x1="35.1" y1="104.2" x2="61.1" y2="104.2"/>
					<circle class="st5" cx="64" cy="104" r="2.6"/>
				</g>
				<g>
					<polyline class="st5" points="35.1,112.7 54,112.7 59.5,117.8 71.3,117.8 					"/>
					<circle class="st5" cx="73.9" cy="117.8" r="2.6"/>
				</g>
			</g>
		</g>
	</g>
</g>
<g id="Text">
</g>
</svg>
